<svg width="109" height="106" viewBox="0 0 109 106" fill="none" xmlns="http://www.w3.org/2000/svg">
<path d="M24.8541 58.6995C24.7932 68.6405 32.8026 76.7485 42.7436 76.8094L70.4788 76.9792C73.2402 76.9961 75.4924 74.7712 75.5093 72.0099L75.7125 38.8172C75.7463 33.2945 71.2966 28.79 65.7739 28.7562L30.0388 28.5374C27.2774 28.5205 25.0252 30.7454 25.0083 33.5067L24.8541 58.6995Z" fill="#FFF1DA"/>
<path d="M63.6187 62.3556C62.7963 62.4075 62.028 62.6549 61.3614 63.0819C59.6185 64.1577 58.8113 66.0297 59.5585 67.2628C60.3057 68.4959 62.3242 68.6229 64.0671 67.5471C64.7474 67.1426 65.3155 66.5653 65.7367 65.8509C65.9295 65.5036 65.8934 65.0155 65.6449 64.6064L64.6743 63.0044C64.4269 62.5943 64.0127 62.34 63.6187 62.3556Z" fill="#D5D6DB"/>
<path d="M55.3293 41.4809C54.733 41.5187 54.1759 41.6982 53.6924 42.0079C52.429 42.7877 51.8432 44.145 52.3845 45.0384C52.9259 45.9318 54.3901 46.0238 55.6534 45.244C56.1466 44.9505 56.5585 44.5316 56.864 44.0136C57.0036 43.7618 56.9774 43.4082 56.7973 43.1115L56.0944 41.9516C55.9152 41.6544 55.615 41.4697 55.3293 41.4809Z" fill="#D5D6DB"/>
<path d="M47.3593 40.6901C47.2176 40.6443 47.0768 40.6577 46.9643 40.7274L43.9966 42.5594C43.7482 42.712 43.7018 43.0923 43.8932 43.4091C43.937 43.4817 43.9913 43.5471 44.053 43.6014L53.5041 51.9605L63.4001 45.8516L47.3593 40.6901Z" fill="#029BC5"/>
<path d="M82.8762 46.8854L55.8995 63.2337L39.1268 68.0093L30.2166 68.2976L28.8628 66.0781L73.9485 39.5489C75.2914 38.7535 76.8787 38.4181 78.5499 38.5768C79.2826 38.6509 80.0231 38.8271 80.7544 39.1007C81.4018 39.3376 82.034 39.6711 82.6321 40.0913C83.3004 40.5655 84.4681 40.8385 84.9605 41.6154C84.9616 41.6145 86.3832 45.0131 82.8762 46.8854V46.8854Z" fill="#E1E6E9"/>
<path d="M55.8124 60.3387L46.6167 82.3236C46.5082 82.6366 46.671 83.0439 46.9801 83.2334C47.1698 83.3497 47.3802 83.3609 47.5392 83.2632L50.5066 81.4439C51.0773 81.0937 51.5519 80.5989 51.9012 79.9901L71.8167 49.9011L55.8124 60.3387Z" fill="#029BC5"/>
<path d="M22.1517 52.8049C21.9155 52.6724 21.6593 52.6653 21.4641 52.7857L19.0126 54.2977C18.6785 54.5035 18.6167 55.0154 18.8745 55.4412C18.9236 55.5221 18.9822 55.5965 19.0485 55.6613L28.0913 64.5277L35.3325 60.1913L22.1517 52.8049Z" fill="#029BC5"/>
<path d="M30.9347 66.369L27.8595 72.3946C27.814 72.481 27.8491 72.6078 27.9378 72.6778C28.0017 72.7282 28.079 72.7369 28.1346 72.6999L30.4272 71.2967C30.445 71.2858 30.4603 71.2707 30.4719 71.2523L35.185 63.7712L30.9347 66.369Z" fill="#029BC5"/>
<path d="M80.2992 39.2962C79.546 39.0134 78.7833 38.8326 78.0288 38.7574C77.4833 39.8235 77.2324 41.0936 77.301 42.4409C77.3352 42.7157 77.5603 42.9535 77.8037 42.9722C77.8794 42.978 77.951 42.9617 78.0118 42.925L82.2339 40.3218C81.6175 39.8861 80.966 39.5408 80.2992 39.2962Z" fill="#029BC5"/>
<path d="M70.8967 43.7551L73.6564 42.0745L77.5455 48.4547L74.7858 50.1353L70.8967 43.7551Z" fill="#D5D6DB"/>
<path d="M69.2996 45.651C68.9672 45.8543 68.9048 46.3606 69.1606 46.7818L69.575 47.4641C69.8418 47.8781 70.3205 48.0373 70.6443 47.8197C70.9523 47.6124 71.0111 47.1354 70.7784 46.7279L70.364 46.0456C70.1085 45.6247 69.6321 45.448 69.2996 45.651V45.651Z" fill="#3A556A"/>
<path d="M66.813 47.1268C66.4806 47.3301 66.4182 47.8365 66.674 48.2576L67.0884 48.9399C67.3552 49.3539 67.8339 49.5131 68.1577 49.2955C68.4658 49.0883 68.5245 48.6112 68.2919 48.2037L67.8775 47.5214C67.6217 47.1007 67.1453 46.924 66.813 47.1268V47.1268Z" fill="#3A556A"/>
<path d="M64.3262 48.6031C63.9943 48.8069 63.9324 49.3126 64.1879 49.7334L64.6023 50.4157C64.8691 50.8297 65.3478 50.9889 65.6716 50.7713C65.9797 50.5641 66.0384 50.087 65.8058 49.6795L65.3914 48.9972C65.1356 48.5761 64.6588 48.3996 64.3262 48.6031V48.6031Z" fill="#3A556A"/>
<path d="M61.8399 50.0791C61.5079 50.2829 61.446 50.7887 61.7016 51.2095L62.116 51.8919C62.3828 52.3058 62.8615 52.465 63.1853 52.2474C63.4934 52.0402 63.5521 51.5631 63.3194 51.1556L62.905 50.4733C62.6491 50.0522 62.1723 49.8758 61.8399 50.0791V50.0791Z" fill="#3A556A"/>
<path d="M59.3539 51.5548C59.0218 51.7587 58.9598 52.2647 59.2155 52.6857L59.6302 53.3683C59.8858 53.7891 60.3624 53.9655 60.6947 53.7622C61.027 53.559 61.0892 53.0531 60.8336 52.6322L60.419 51.9496C60.1638 51.5286 59.6873 51.3517 59.3546 51.5544C59.3544 51.5546 59.3542 51.5546 59.3539 51.5548Z" fill="#3A556A"/>
<path d="M56.8681 53.0311C56.5359 53.235 56.474 53.741 56.7297 54.162L57.1443 54.8446C57.3999 55.2654 57.8765 55.4418 58.2089 55.2385C58.5412 55.0353 58.6034 54.5294 58.3478 54.1086L57.9332 53.4259C57.678 53.0049 57.2014 52.828 56.8688 53.0307C56.8685 53.0309 56.8682 53.0311 56.8681 53.0311Z" fill="#3A556A"/>
<path d="M54.3815 54.507C54.0494 54.7109 53.9874 55.2168 54.2431 55.6378L54.6577 56.3204C54.9138 56.741 55.3905 56.9165 55.7223 56.7128C56.0536 56.5095 56.1157 56.0046 55.861 55.5845L55.4464 54.9019C55.1909 54.4808 54.7142 54.304 54.3815 54.507Z" fill="#3A556A"/>
<path d="M51.8952 55.9828C51.563 56.1867 51.5011 56.6927 51.7568 57.1137L52.1714 57.7963C52.4274 58.2168 52.9041 58.3924 53.236 58.1887C53.5673 57.9853 53.6294 57.4805 53.3747 57.0603L52.9601 56.3777C52.7045 55.9566 52.2279 55.7798 51.8952 55.9828Z" fill="#3A556A"/>
<path d="M49.4091 57.4584C49.077 57.6623 49.015 58.1683 49.2707 58.5892L49.6853 59.2718C49.9413 59.6924 50.418 59.8679 50.7499 59.6642C51.0812 59.4609 51.1433 58.9561 50.8886 58.5359L50.474 57.8533C50.2183 57.4323 49.7416 57.2555 49.4091 57.4584Z" fill="#3A556A"/>
<path d="M46.922 58.9347C46.5897 59.138 46.5275 59.6439 46.7831 60.0647L46.7837 60.0656L47.1983 60.7482C47.4543 61.1688 47.931 61.3443 48.2628 61.1406C48.5941 60.9372 48.6562 60.4324 48.4016 60.0122L47.987 59.3296C47.7314 58.9085 47.2547 58.7317 46.922 58.9347Z" fill="#3A556A"/>
<path d="M44.4367 60.4105C44.1044 60.6138 44.0422 61.1197 44.2978 61.5405L44.2983 61.5414L44.7129 62.224C44.9689 62.6445 45.4457 62.8201 45.7775 62.6164C46.1088 62.413 46.1709 61.9082 45.9163 61.488L45.5016 60.8054C45.2459 60.3845 44.7692 60.2077 44.4367 60.4105Z" fill="#3A556A"/>
</svg>
